+8_US_stride2.mot
nRows=135
nColumns=3

name +8_US_stride2.mot
datacolumns 3
datarows 135
range 0.260000 0.930000
endheader
time	soleus_l	med_gas_l
        0.2600000000	       35.0307407672	       35.8574733909	
        0.2650000000	       34.5496908082	       35.8569541977	
        0.2700000000	       34.0922570137	       35.6314472340	
        0.2750000000	       33.7404861517	       35.3043631312	
        0.2800000000	       33.5078935222	       34.9010260540	
        0.2850000000	       33.4298234388	       34.5551355123	
        0.2900000000	       33.4077346764	       34.2611878318	
        0.2950000000	       33.4601977718	       33.9120869510	
        0.3000000000	       33.5532475309	       33.6223963311	
        0.3050000000	       33.6625020203	       33.3918113585	
        0.3100000000	       33.7707608040	       33.1980738180	
        0.3150000000	       33.8685161695	       33.0273939664	
        0.3200000000	       33.9437860251	       32.8868227960	
        0.3250000000	       34.0311024738	       32.7005143152	
        0.3300000000	       34.1170393572	       32.4710463278	
        0.3350000000	       34.1764610409	       32.2286306965	
        0.3400000000	       34.2024862099	       31.9821653964	
        0.3450000000	       34.1838448043	       31.7407460624	
        0.3500000000	       34.1463661859	       31.5559382170	
        0.3550000000	       34.0820489554	       31.3733141520	
        0.3600000000	       33.9660063919	       31.1339630345	
        0.3650000000	       33.8159001778	       30.8987283123	
        0.3700000000	       33.6203190568	       30.6567042105	
        0.3750000000	       33.4318549281	       30.4625955037	
        0.3800000000	       33.2473754284	       30.2962966724	
        0.3850000000	       32.9857393149	       30.0826467578	
        0.3900000000	       32.7136178951	       29.8704567857	
        0.3950000000	       32.4431952187	       29.6537418193	
        0.4000000000	       32.1774114453	       29.4205068496	
        0.4050000000	       31.9357688180	       29.1818504976	
        0.4100000000	       31.7576483765	       28.9870002292	
        0.4150000000	       31.5331982281	       28.7259443489	
        0.4200000000	       31.2727655223	       28.4137212557	
        0.4250000000	       31.0114659103	       28.1097876278	
        0.4300000000	       30.7318082962	       27.8160484965	
        0.4350000000	       30.4198879429	       27.5429588358	
        0.4400000000	       30.1410500424	       27.3461981493	
        0.4450000000	       29.8192210334	       27.1619441466	
        0.4500000000	       29.3138000174	       26.9377065919	
        0.4550000000	       28.7283858868	       26.7429361591	
        0.4600000000	       28.0663021502	       26.5828564845	
        0.4650000000	       27.3634924152	       26.4719095782	
        0.4700000000	       26.7557087646	       26.4179531338	
        0.4750000000	       26.2903043391	       26.3965187070	
        0.4800000000	       25.7195048725	       26.3798508825	
        0.4850000000	       25.1955974062	       26.3425652934	
        0.4900000000	       24.7436839351	       26.2431502524	
        0.4950000000	       24.3634076601	       26.0585583048	
        0.5000000000	       24.1063159613	       25.8621918188	
        0.5050000000	       23.8180406840	       25.5783137248	
        0.5100000000	       23.5527031065	       25.2571205072	
        0.5150000000	       23.3755838433	       24.9992940926	
        0.5200000000	       23.2898167249	       24.8310622867	
        0.5250000000	       23.3525801736	       24.8105566021	
        0.5300000000	       23.4862601846	       24.8529627900	
        0.5350000000	       23.7203602948	       24.9713178305	
        0.5400000000	       24.1392755457	       25.1606724639	
        0.5450000000	       24.6458462332	       25.3458242404	
        0.5500000000	       25.2237077200	       25.5071354530	
        0.5550000000	       25.8429168691	       25.6451952468	
        0.5600000000	       26.3904551420	       25.7610899038	
        0.5650000000	       26.8169770322	       25.8618125335	
        0.5700000000	       27.3273153410	       26.0262274843	
        0.5750000000	       27.7931766760	       26.2442954288	
        0.5800000000	       28.1770222776	       26.4979146805	
        0.5850000000	       28.5039227901	       26.7642215001	
        0.5900000000	       28.7984934792	       27.0024936733	
        0.5950000000	       29.0288723878	       27.1459598337	
        0.6000000000	       29.3297858338	       27.2703183585	
        0.6050000000	       29.7879216900	       27.3767535561	
        0.6100000000	       30.2931751328	       27.4381716370	
        0.6150000000	       30.8423823342	       27.4812443513	
        0.6200000000	       31.4001901856	       27.5187979010	
        0.6250000000	       31.8236837589	       27.5459944138	
        0.6300000000	       32.1567102300	       27.5669725572	
        0.6350000000	       32.5420527591	       27.5896384510	
        0.6400000000	       32.8427187582	       27.6100666238	
        0.6450000000	       33.0914044305	       27.6403784914	
        0.6500000000	       33.2723373914	       27.6849688071	
        0.6550000000	       33.3931346826	       27.7408086555	
        0.6600000000	       33.5207085093	       27.8407366619	
        0.6650000000	       33.6116381563	       27.9690608553	
        0.6700000000	       33.6619586702	       28.1046877222	
        0.6750000000	       33.6866332998	       28.2306858414	
        0.6800000000	       33.7000676205	       28.3260846866	
        0.6850000000	       33.7214569962	       28.3737307716	
        0.6900000000	       33.7664368163	       28.3841894915	
        0.6950000000	       33.8715516352	       28.3796947122	
        0.7000000000	       34.0398730240	       28.3378945402	
        0.7050000000	       34.2670037094	       28.2879820717	
        0.7100000000	       34.5380632260	       28.2451969139	
        0.7150000000	       34.7794807950	       28.2284442407	
        0.7200000000	       35.0030515654	       28.2231665136	
        0.7250000000	       35.3167016380	       28.2420384787	
        0.7300000000	       35.6271713180	       28.2809675584	
        0.7350000000	       35.9490594869	       28.3387156872	
        0.7400000000	       36.2955139018	       28.4148488137	
        0.7450000000	       36.6404562547	       28.5037793708	
        0.7500000000	       36.9134892905	       28.5852719590	
        0.7550000000	       37.2500374929	       28.7051953973	
        0.7600000000	       37.5990204991	       28.8632052900	
        0.7650000000	       37.8710935759	       29.0324037562	
        0.7700000000	       38.0545402034	       29.2048834676	
        0.7750000000	       38.1282901996	       29.3242351941	
        0.7800000000	       38.1438934209	       29.4508365790	
        0.7850000000	       38.1402409498	       29.6049480582	
        0.7900000000	       38.1259753790	       29.7836812964	
        0.7950000000	       38.1530577039	       30.0353752199	
        0.8000000000	       38.2258154784	       30.4161115114	
        0.8050000000	       38.3073584176	       30.8341992826	
        0.8100000000	       38.3705494997	       31.2921591690	
        0.8150000000	       38.4066515662	       32.0145021468	
        0.8200000000	       38.3598670711	       32.8139498962	
        0.8250000000	       38.2232356485	       33.6285388528	
        0.8300000000	       38.0108565456	       34.4007840327	
        0.8350000000	       37.7887765322	       35.0333269050	
        0.8400000000	       37.6276191629	       35.4404928636	
        0.8450000000	       37.4647523536	       35.8162557599	
        0.8500000000	       37.3164926169	       36.1006524714	
        0.8550000000	       37.1925096211	       36.2472817393	
        0.8600000000	       37.0676723312	       36.2943288602	
        0.8650000000	       36.9079695523	       36.2731986457	
        0.8700000000	       36.7579129107	       36.2407540952	
        0.8750000000	       36.5928993648	       36.2154454163	
        0.8800000000	       36.3789183928	       36.2065936688	
        0.8850000000	       36.2047173571	       36.2576483742	
        0.8900000000	       36.0918420162	       36.3756504343	
        0.8950000000	       36.0684429696	       36.5516686888	
        0.9000000000	       36.0709486273	       36.7370207649	
        0.9050000000	       36.0996494401	       36.8967997987	
        0.9100000000	       36.0949732447	       37.0706601723	
        0.9150000000	       36.0363871040	       37.1708083804	
        0.9200000000	       35.8590486569	       37.1849909610	
        0.9250000000	       35.5905126167	       37.1299818627	
        0.9300000000	       35.3291854266	       37.0446991312	
